DataRate=300.000000
DataType=double
version=3
OpenSimVersion=4.2
endheader
time	ground_force_vx1	ground_force_vy1	ground_force_vz1	ground_force_px1	ground_force_py1	ground_force_pz1	ground_torque_x1	ground_torque_y1	ground_torque_z1	ground_force_vx2	ground_force_vy2	ground_force_vz2	ground_force_px2	ground_force_py2	ground_force_pz2	ground_torque_x2	ground_torque_y2	ground_torque_z2
7.500000000000001	2.836245930084082	2.574532061583189	-0.8999960866605697	0.3642064960855448	0	0.1322004232915383	0	0.7689897754732307	0	15.08462243215309	663.0353468716354	-20.22534361881528	2.455161097313153	0	1.29295938127192	0	21.3627565414007	0
7.503333333333334	-0.03838157003149445	-0.03467269140512869	0.01202709963472334	-0.004849755986564609	0	-0.001755615601549366	0	-0.01026448134242896	0	14.91305333454257	663.4909482176257	-20.80448712239746	2.45502980854359	0	1.292355489371477	0	21.07176853487681	0
7.506666666666667	-1.170406803409424	-1.062246996788938	0.371254124673049	-0.1502216174243021	0	-0.05452356071630619	0	-0.3172019059076717	0	14.21056739909798	664.2295114809521	-20.43543240861118	2.452612227397164	0	1.292825523787512	0	20.96468888321562	0
7.510000000000001	-0.8016061628191913	-0.7275940850847253	0.2543323733648154	-0.1029182913891438	0	-0.03735660823625908	0	-0.2173079737957179	0	13.59431670298356	665.0926391953817	-19.5971409414898	2.448896598238981	0	1.293907792224269	0	21.02017513362422	0
7.513333333333334	-0.01340092914584697	-0.01221188035041086	0.004297270844451815	-0.001744094947191691	0	-0.0006345134488236256	0	-0.003675182052477194	0	13.58433624975522	665.9715111505469	-19.1165495057092	2.445863557716448	0	1.294730957306109	0	21.12619124475917	0
7.516666666666667	0.386529586794256	0.3508041056696406	-0.1226026172868116	0.04960848651319225	0	0.01800545265849429	0	0.1047520668678307	0	14.3060712272899	666.9436540459496	-19.46614741148039	2.44481834795369	0	1.29479334168554	0	21.18479812336625	0
7.52	0.2936397431680619	0.2665236274222996	-0.09316171973641471	0.03769844331853524	0	0.0136834186820904	0	0.07959941204923757	0	15.56501548823558	668.2088545902882	-20.38375152526592	2.445522275042264	0	1.294335435795279	0	21.21158369441797	0
7.523333333333333	0.02521475372193426	0.02290180792998977	-0.008014552398141004	0.003244819982728039	0	0.001178251702803393	0	0.006848961704493829	0	17.02054087978784	669.8774301804386	-21.13301295545028	2.446554962349133	0	1.294058407826779	0	21.30639818148216	0
7.526666666666667	-0.1288229961633528	-0.116915280199149	0.04086000226061876	-0.01653298563428977	0	-0.006000625447350582	0	-0.03491080870529711	0	18.25400273563694	671.7409051962009	-21.16951054806486	2.446428785878533	0	1.29447494875728	0	21.50226482678267	0
7.53	-0.1094518180024188	-0.09934351087265256	0.03472432095512537	-0.01405131097041904	0	-0.005100181455135066	0	-0.02966916532477833	0	18.88092835333573	673.288544827879	-20.60895067166468	2.444677612009224	0	1.295456279521679	0	21.68494582271755	0
7.533333333333334	-0.01750119034729283	-0.01588994551091516	0.005557295009303751	-0.002249358694090509	0	-0.0008166123746886575	0	-0.004748721115226962	0	18.79548366235015	674.0556893408938	-20.10365616421771	2.442169258191974	0	1.296337119238935	0	21.69257687080461	0
7.536666666666667	0.04183087739877945	0.03796388796814064	-0.01326740997800247	0.005368271241983996	0	0.001948385157994203	0	0.01133556924547141	0	18.28271605220899	673.9889205816218	-20.26430248681113	2.44033295487041	0	1.296476715273455	0	21.4786004200268	0
7.540000000000001	0.04021226826939871	0.0364979952239136	-0.01275712592610916	0.005162199600304559	0	0.001873704889124433	0	0.01089994397388998	0	17.77970753448849	673.4794202433626	-21.12248812335555	2.439881958788785	0	1.295829735373271	0	21.16722028179083	0
7.543333333333334	0.009197218486323098	0.008348844810936772	-0.002919164683391546	0.001181469525591791	0	0.0004289005479166872	0	0.002494520473159359	0	17.52846391369309	673.078332617971	-22.09459175826004	2.440164413765698	0	1.295047047115613	0	20.9626345866337	0
7.546666666666667	-0.01328715601001255	-0.01205922891287167	0.004214217637539203	-0.001705139171641722	0	-0.000618849637335258	0	-0.003600353718547283	0	17.50114200785807	673.147825577963	-22.49549032382703	2.439775616159799	0	1.294961129520876	0	21.00956388454568	0
7.550000000000001	-0.01459943762385954	-0.01325042716033105	0.004631048756264487	-0.001874010075679035	0	-0.0006801960130472213	0	-0.003956869437894118	0	17.59115350147252	673.6589545356821	-22.16554015390603	2.437909755015311	0	1.295843211694241	0	21.30827484646312	0
7.553333333333334	-0.004290548538283008	-0.003892836862951182	0.001360630799863236	-0.0005507392046152057	0	-0.0001999465175665721	0	-0.001163129104792434	0	17.78847563586074	674.2425642408211	-21.65365230007579	2.435203395222731	0	1.297098861559228	0	21.70504501383476	0
7.556666666666668	0.004114869228891426	0.003736402637109745	-0.001305613237426385	0.0005282542692578232	0	0.0001916743225996771	0	0.001114749824664707	0	18.18056920161024	674.4933465969739	-21.74669679150227	2.433206968407896	0	1.297765914309768	0	21.96891579648534	0
7.56	0.005249276937249478	0.004763450696129175	-0.00166401014367026	0.0006735103956104809	0	0.0002444426308206609	0	0.001421699748017589	0	18.82152651670471	674.3334744293643	-22.70534728789351	2.432874112532359	0	1.29743618228381	0	21.96912694431657	0
7.563333333333333	0.001870233853805629	0.001692142187059608	-0.0005903441665840306	0.000239183308961582	0	8.689351261723788e-05	0	0.0005058320126638178	0	19.61328280885328	674.0816730202519	-23.93158392944007	2.433520682214401	0	1.296694966741996	0	21.81634632178313	0
7.566666666666667	-0.001248584744597409	-0.001139553837733125	0.0003982023074781939	-0.0001610470929126115	0	-5.830826319329027e-05	0	-0.0003379890775018224	0	20.32569160236975	674.0707122189074	-24.47037344212843	2.433385450236077	0	1.29656167797137	0	21.75921600844998	0
7.57	-0.001890735234781457	-0.001714696349087557	0.0005968665062791652	-0.0002419759013548649	0	-8.776078809787936e-05	0	-0.0005094591691274937	0	20.73844184001247	674.1899308599059	-23.89229656092998	2.431318637608849	0	1.297472774840484	0	21.90795487359725	0
7.573333333333334	-0.0007792881529874182	-0.0006924318280978678	0.000238392219444293	-9.728773761502089e-05	0	-3.549396323833762e-05	0	-0.0002073643831037513	0	20.77808434906661	673.9292969896122	-22.69819803226185	2.427945838847092	0	1.298845988561784	0	22.11083173975375	0
7.576666666666667	0.0004122616402911731	0.0003937463349873592	-0.0001381995230606602	5.560796487948443e-05	0	1.977920349118666e-05	0	0.000111563021471161	0	20.5547338457276	672.9394375322561	-21.91120679979672	2.425189554725624	0	1.299611458918847	0	22.11600539049283	0
7.58	0.0007454235971682849	0.0006761588610632651	-0.0002299305044914986	9.420391786865808e-05	0	3.394837738792218e-05	0	0.0001940299290360545	0	20.28212403978598	671.4721961820443	-22.25697681068977	2.424589298315252	0	1.299152856878801	0	21.8187576534926	0
7.583333333333334	0.0003235253326530252	0.0002539794460982154	-7.79961385368176e-05	3.391681489695583e-05	0	1.27480961403838e-05	0	7.598337313119758e-05	0	20.13797647330907	670.2053323116174	-23.5776534704919	2.425910816582647	0	1.297842731127945	0	21.35852720502471	0
7.586666666666667	-0.0002637139047846244	-0.0002978977477403633	0.0001075088055466685	-4.229981425808266e-05	0	-1.421363857581094e-05	0	-7.305500043984857e-05	0	20.1773853175605	669.6602715682841	-24.93224685405418	2.427292516564352	0	1.29676741254078	0	21.00753726610765	0
7.590000000000001	-0.0005001390447650545	-0.0004625063404982254	0.0001452526221473192	-6.166610108147146e-05	0	-2.154874489879357e-05	0	-0.0001145866436750227	0	20.36190169104078	669.7913657135109	-25.36254484097685	2.426868916018054	0	1.296855789476062	0	20.95066785560291	0
7.593333333333334	-0.0001883984654160591	-6.719467995088524e-05	-7.811811890337444e-06	-3.554585456345171e-06	0	-2.311629609431909e-06	0	-1.652751305783414e-05	0	20.63160168936137	670.0660690644916	-24.71341967561956	2.424437619498575	0	1.298101636549133	0	21.14120158649413	0
7.596666666666668	0.0004696510560526842	0.0005985960391435385	-0.000223376637254087	8.610103087851464e-05	0	2.806378421676102e-05	0	0.000137197478573597	0	20.91573309999903	669.9057671314188	-23.75121897088628	2.421611453296451	0	1.299553381792381	0	21.36567496145948	0
7.600000000000001	0.0008766394500460849	0.0008466994467245805	-0.0002547810176342014	0.0001100562961664043	0	3.721247813043362e-05	0	0.0001836354005555208	0	21.09749626764416	669.1031953316754	-23.45137628736725	2.420328501629759	0	1.300117931726904	0	21.43833685376532	0
7.603333333333333	0.0003477634841141742	4.879416833184457e-05	7.269951708773326e-05	-1.047049452620254e-05	0	-1.541831772524204e-06	0	-6.194123307602249e-06	0	21.03337814332539	667.8790192719561	-24.12104986509305	2.421125773717578	0	1.299494448339267	0	21.31849001686398	0
7.606666666666667	-0.001145804171955427	-0.001540723187690591	0.0005908009166595338	-0.0002245872277960919	0	-7.269467396536386e-05	0	-0.0003533349714860769	0	20.648288772081	666.574545859145	-25.14219097166965	2.422663823553551	0	1.298433055059324	0	21.0861143434075	0
7.61	-0.002332241582154288	-0.002334396042678176	0.000715387993376016	-0.00030555506686112	0	-0.000102207559788272	0	-0.0004960703495128553	0	20.00740296363684	665.3294144574412	-25.528142290409	2.422843478148939	0	1.298093432191316	0	20.87242825806648	0
7.613333333333334	-0.001191013523757423	-0.0004092339088138123	-0.0001114532901819013	-7.776788089056472e-06	0	-7.381965210761711e-06	0	-3.412034985838198e-05	0	19.29015367226987	664.0486903209529	-24.81292358869734	2.420652844923016	0	1.299015531294226	0	20.79303662303844	0
7.616666666666667	0.002837502726338725	0.00401345299359099	-0.001583226029858076	0.0005935740575010726	0	0.0001913058797898533	0	0.0009299240757104436	0	18.70321414794293	662.5938350573757	-23.52524497126068	2.417245197818303	0	1.30057086433364	0	20.86755026605057	0
7.62	0.006588829706588951	0.006793355730919218	-0.002137516858282095	0.000899828714135704	0	0.0002995784792373331	0	0.001451516981784502	0	18.38993806273691	660.9553117978363	-22.77662123137175	2.415096346082583	0	1.301462910054281	0	20.9922771895255	0
7.623333333333334	0.004196842185637695	0.002161663991956532	-4.1885345968615e-05	0.0001628735864435807	0	6.676558338350607e-05	0	0.0003171625282715823	0	18.36953205042547	659.3107391190623	-23.24553393558483	2.415714532179234	0	1.300939492015803	0	21.04532301122809	0
7.626666666666667	-0.006835803432527712	-0.01028783749535485	0.004191468257708887	-0.001547283517025623	0	-0.000496347380039662	0	-0.002414008753188818	0	18.55986901820645	657.9844415741409	-24.50838894160111	2.418051566775968	0	1.299584052885965	0	21.02683709434016	0
7.630000000000001	-0.01857216595443304	-0.0196834340326276	0.006349511939193311	-0.002637371688576276	0	-0.0008748911425273787	0	-0.004239597459264306	0	18.88280499913501	657.2902770444235	-25.41565373637799	2.419344651747704	0	1.298842202862907	0	21.05787871755786	0
7.633333333333334	-0.01416232268111088	-0.008950412232405202	0.001149069744780263	-0.0008630473722468741	0	-0.0003199993332625103	0	-0.001533036572716117	0	19.3272136231054	657.2937449733407	-25.15880382044885	2.417664126409313	0	1.299689712627356	0	21.23633408578208	0
7.636666666666667	0.01579974356779842	0.025808460881041	-0.01092506801287451	0.003960920861991399	0	0.001263532047674936	0	0.006149163154656446	0	19.89035445807235	657.6842076370824	-24.01448267657035	2.413696476842536	0	1.30170381422324	0	21.50710463593239	0
7.640000000000001	0.0518329490878556	0.05642489303450632	-0.01862872081165979	0.007642931393833313	0	0.002527065024752011	0	0.01224981011412923	0	20.49373531632278	657.9433191682681	-23.12096716426149	2.410130415849117	0	1.303389102100915	0	21.66649736325329	0
7.643333333333334	0.04606987688219734	0.03300880393796219	-0.006110133441815183	0.003545029893480568	0	0.001263942463581123	0	0.006078514088985224	0	20.98174527684279	657.7334865587094	-23.49970552516725	2.409285781590874	0	1.303461149382412	0	21.50974707462023	0
7.646666666666667	-0.03428963853299253	-0.06296522826562528	0.02794834971875982	-0.009913939499528325	0	-0.003140641091607194	0	-0.01529642731016912	0	21.1905607183877	657.1555728160948	-25.15161188752873	2.411078865819814	0	1.301958707776244	0	21.02944960299945	0
